<?xml version="1.0" encoding="utf-8" standalone="no"?>
<!DOCTYPE svg PUBLIC "-//W3C//DTD SVG 1.1//EN"
  "http://www.w3.org/Graphics/SVG/1.1/DTD/svg11.dtd">
<!-- Created with matplotlib (https://matplotlib.org/) -->
<svg height="288pt" version="1.1" viewBox="0 0 864 288" width="864pt" xmlns="http://www.w3.org/2000/svg" xmlns:xlink="http://www.w3.org/1999/xlink">
 <defs>
  <style type="text/css">
*{stroke-linecap:butt;stroke-linejoin:round;}
  </style>
 </defs>
 <g id="figure_1">
  <g id="patch_1">
   <path d="M 0 288 
L 864 288 
L 864 0 
L 0 0 
z
" style="fill:#ffffff;"/>
  </g>
  <g id="axes_1">
   <g id="patch_2">
    <path d="M 44.55 246.2 
L 420.63164 246.2 
L 420.63164 26.8 
L 44.55 26.8 
z
" style="fill:#ffffff;"/>
   </g>
   <g id="matplotlib.axis_1">
    <g id="xtick_1">
     <g id="line2d_1">
      <defs>
       <path d="M 0 0 
L 0 3.5 
" id="m4467c79d5c" style="stroke:#000000;stroke-width:0.8;"/>
      </defs>
      <g>
       <use style="stroke:#000000;stroke-width:0.8;" x="61.64462" xlink:href="#m4467c79d5c" y="246.2"/>
      </g>
     </g>
     <g id="text_1">
      <!-- 1700 -->
      <defs>
       <path d="M 12.40625 8.296875 
L 28.515625 8.296875 
L 28.515625 63.921875 
L 10.984375 60.40625 
L 10.984375 69.390625 
L 28.421875 72.90625 
L 38.28125 72.90625 
L 38.28125 8.296875 
L 54.390625 8.296875 
L 54.390625 0 
L 12.40625 0 
z
" id="DejaVuSans-49"/>
       <path d="M 8.203125 72.90625 
L 55.078125 72.90625 
L 55.078125 68.703125 
L 28.609375 0 
L 18.3125 0 
L 43.21875 64.59375 
L 8.203125 64.59375 
z
" id="DejaVuSans-55"/>
       <path d="M 31.78125 66.40625 
Q 24.171875 66.40625 20.328125 58.90625 
Q 16.5 51.421875 16.5 36.375 
Q 16.5 21.390625 20.328125 13.890625 
Q 24.171875 6.390625 31.78125 6.390625 
Q 39.453125 6.390625 43.28125 13.890625 
Q 47.125 21.390625 47.125 36.375 
Q 47.125 51.421875 43.28125 58.90625 
Q 39.453125 66.40625 31.78125 66.40625 
z
M 31.78125 74.21875 
Q 44.046875 74.21875 50.515625 64.515625 
Q 56.984375 54.828125 56.984375 36.375 
Q 56.984375 17.96875 50.515625 8.265625 
Q 44.046875 -1.421875 31.78125 -1.421875 
Q 19.53125 -1.421875 13.0625 8.265625 
Q 6.59375 17.96875 6.59375 36.375 
Q 6.59375 54.828125 13.0625 64.515625 
Q 19.53125 74.21875 31.78125 74.21875 
z
" id="DejaVuSans-48"/>
      </defs>
      <g transform="translate(48.91962 260.798437)scale(0.1 -0.1)">
       <use xlink:href="#DejaVuSans-49"/>
       <use x="63.623047" xlink:href="#DejaVuSans-55"/>
       <use x="127.246094" xlink:href="#DejaVuSans-48"/>
       <use x="190.869141" xlink:href="#DejaVuSans-48"/>
      </g>
     </g>
    </g>
    <g id="xtick_2">
     <g id="line2d_2">
      <g>
       <use style="stroke:#000000;stroke-width:0.8;" x="131.418579" xlink:href="#m4467c79d5c" y="246.2"/>
      </g>
     </g>
     <g id="text_2">
      <!-- 1720 -->
      <defs>
       <path d="M 19.1875 8.296875 
L 53.609375 8.296875 
L 53.609375 0 
L 7.328125 0 
L 7.328125 8.296875 
Q 12.9375 14.109375 22.625 23.890625 
Q 32.328125 33.6875 34.8125 36.53125 
Q 39.546875 41.84375 41.421875 45.53125 
Q 43.3125 49.21875 43.3125 52.78125 
Q 43.3125 58.59375 39.234375 62.25 
Q 35.15625 65.921875 28.609375 65.921875 
Q 23.96875 65.921875 18.8125 64.3125 
Q 13.671875 62.703125 7.8125 59.421875 
L 7.8125 69.390625 
Q 13.765625 71.78125 18.9375 73 
Q 24.125 74.21875 28.421875 74.21875 
Q 39.75 74.21875 46.484375 68.546875 
Q 53.21875 62.890625 53.21875 53.421875 
Q 53.21875 48.921875 51.53125 44.890625 
Q 49.859375 40.875 45.40625 35.40625 
Q 44.1875 33.984375 37.640625 27.21875 
Q 31.109375 20.453125 19.1875 8.296875 
z
" id="DejaVuSans-50"/>
      </defs>
      <g transform="translate(118.693579 260.798437)scale(0.1 -0.1)">
       <use xlink:href="#DejaVuSans-49"/>
       <use x="63.623047" xlink:href="#DejaVuSans-55"/>
       <use x="127.246094" xlink:href="#DejaVuSans-50"/>
       <use x="190.869141" xlink:href="#DejaVuSans-48"/>
      </g>
     </g>
    </g>
    <g id="xtick_3">
     <g id="line2d_3">
      <g>
       <use style="stroke:#000000;stroke-width:0.8;" x="201.192538" xlink:href="#m4467c79d5c" y="246.2"/>
      </g>
     </g>
     <g id="text_3">
      <!-- 1740 -->
      <defs>
       <path d="M 37.796875 64.3125 
L 12.890625 25.390625 
L 37.796875 25.390625 
z
M 35.203125 72.90625 
L 47.609375 72.90625 
L 47.609375 25.390625 
L 58.015625 25.390625 
L 58.015625 17.1875 
L 47.609375 17.1875 
L 47.609375 0 
L 37.796875 0 
L 37.796875 17.1875 
L 4.890625 17.1875 
L 4.890625 26.703125 
z
" id="DejaVuSans-52"/>
      </defs>
      <g transform="translate(188.467538 260.798437)scale(0.1 -0.1)">
       <use xlink:href="#DejaVuSans-49"/>
       <use x="63.623047" xlink:href="#DejaVuSans-55"/>
       <use x="127.246094" xlink:href="#DejaVuSans-52"/>
       <use x="190.869141" xlink:href="#DejaVuSans-48"/>
      </g>
     </g>
    </g>
    <g id="xtick_4">
     <g id="line2d_4">
      <g>
       <use style="stroke:#000000;stroke-width:0.8;" x="270.966498" xlink:href="#m4467c79d5c" y="246.2"/>
      </g>
     </g>
     <g id="text_4">
      <!-- 1760 -->
      <defs>
       <path d="M 33.015625 40.375 
Q 26.375 40.375 22.484375 35.828125 
Q 18.609375 31.296875 18.609375 23.390625 
Q 18.609375 15.53125 22.484375 10.953125 
Q 26.375 6.390625 33.015625 6.390625 
Q 39.65625 6.390625 43.53125 10.953125 
Q 47.40625 15.53125 47.40625 23.390625 
Q 47.40625 31.296875 43.53125 35.828125 
Q 39.65625 40.375 33.015625 40.375 
z
M 52.59375 71.296875 
L 52.59375 62.3125 
Q 48.875 64.0625 45.09375 64.984375 
Q 41.3125 65.921875 37.59375 65.921875 
Q 27.828125 65.921875 22.671875 59.328125 
Q 17.53125 52.734375 16.796875 39.40625 
Q 19.671875 43.65625 24.015625 45.921875 
Q 28.375 48.1875 33.59375 48.1875 
Q 44.578125 48.1875 50.953125 41.515625 
Q 57.328125 34.859375 57.328125 23.390625 
Q 57.328125 12.15625 50.6875 5.359375 
Q 44.046875 -1.421875 33.015625 -1.421875 
Q 20.359375 -1.421875 13.671875 8.265625 
Q 6.984375 17.96875 6.984375 36.375 
Q 6.984375 53.65625 15.1875 63.9375 
Q 23.390625 74.21875 37.203125 74.21875 
Q 40.921875 74.21875 44.703125 73.484375 
Q 48.484375 72.75 52.59375 71.296875 
z
" id="DejaVuSans-54"/>
      </defs>
      <g transform="translate(258.241498 260.798437)scale(0.1 -0.1)">
       <use xlink:href="#DejaVuSans-49"/>
       <use x="63.623047" xlink:href="#DejaVuSans-55"/>
       <use x="127.246094" xlink:href="#DejaVuSans-54"/>
       <use x="190.869141" xlink:href="#DejaVuSans-48"/>
      </g>
     </g>
    </g>
    <g id="xtick_5">
     <g id="line2d_5">
      <g>
       <use style="stroke:#000000;stroke-width:0.8;" x="340.740457" xlink:href="#m4467c79d5c" y="246.2"/>
      </g>
     </g>
     <g id="text_5">
      <!-- 1780 -->
      <defs>
       <path d="M 31.78125 34.625 
Q 24.75 34.625 20.71875 30.859375 
Q 16.703125 27.09375 16.703125 20.515625 
Q 16.703125 13.921875 20.71875 10.15625 
Q 24.75 6.390625 31.78125 6.390625 
Q 38.8125 6.390625 42.859375 10.171875 
Q 46.921875 13.96875 46.921875 20.515625 
Q 46.921875 27.09375 42.890625 30.859375 
Q 38.875 34.625 31.78125 34.625 
z
M 21.921875 38.8125 
Q 15.578125 40.375 12.03125 44.71875 
Q 8.5 49.078125 8.5 55.328125 
Q 8.5 64.0625 14.71875 69.140625 
Q 20.953125 74.21875 31.78125 74.21875 
Q 42.671875 74.21875 48.875 69.140625 
Q 55.078125 64.0625 55.078125 55.328125 
Q 55.078125 49.078125 51.53125 44.71875 
Q 48 40.375 41.703125 38.8125 
Q 48.828125 37.15625 52.796875 32.3125 
Q 56.78125 27.484375 56.78125 20.515625 
Q 56.78125 9.90625 50.3125 4.234375 
Q 43.84375 -1.421875 31.78125 -1.421875 
Q 19.734375 -1.421875 13.25 4.234375 
Q 6.78125 9.90625 6.78125 20.515625 
Q 6.78125 27.484375 10.78125 32.3125 
Q 14.796875 37.15625 21.921875 38.8125 
z
M 18.3125 54.390625 
Q 18.3125 48.734375 21.84375 45.5625 
Q 25.390625 42.390625 31.78125 42.390625 
Q 38.140625 42.390625 41.71875 45.5625 
Q 45.3125 48.734375 45.3125 54.390625 
Q 45.3125 60.0625 41.71875 63.234375 
Q 38.140625 66.40625 31.78125 66.40625 
Q 25.390625 66.40625 21.84375 63.234375 
Q 18.3125 60.0625 18.3125 54.390625 
z
" id="DejaVuSans-56"/>
      </defs>
      <g transform="translate(328.015457 260.798437)scale(0.1 -0.1)">
       <use xlink:href="#DejaVuSans-49"/>
       <use x="63.623047" xlink:href="#DejaVuSans-55"/>
       <use x="127.246094" xlink:href="#DejaVuSans-56"/>
       <use x="190.869141" xlink:href="#DejaVuSans-48"/>
      </g>
     </g>
    </g>
    <g id="xtick_6">
     <g id="line2d_6">
      <g>
       <use style="stroke:#000000;stroke-width:0.8;" x="410.514416" xlink:href="#m4467c79d5c" y="246.2"/>
      </g>
     </g>
     <g id="text_6">
      <!-- 1800 -->
      <g transform="translate(397.789416 260.798437)scale(0.1 -0.1)">
       <use xlink:href="#DejaVuSans-49"/>
       <use x="63.623047" xlink:href="#DejaVuSans-56"/>
       <use x="127.246094" xlink:href="#DejaVuSans-48"/>
       <use x="190.869141" xlink:href="#DejaVuSans-48"/>
      </g>
     </g>
    </g>
    <g id="text_7">
     <!-- frame -->
     <defs>
      <path d="M 37.109375 75.984375 
L 37.109375 68.5 
L 28.515625 68.5 
Q 23.6875 68.5 21.796875 66.546875 
Q 19.921875 64.59375 19.921875 59.515625 
L 19.921875 54.6875 
L 34.71875 54.6875 
L 34.71875 47.703125 
L 19.921875 47.703125 
L 19.921875 0 
L 10.890625 0 
L 10.890625 47.703125 
L 2.296875 47.703125 
L 2.296875 54.6875 
L 10.890625 54.6875 
L 10.890625 58.5 
Q 10.890625 67.625 15.140625 71.796875 
Q 19.390625 75.984375 28.609375 75.984375 
z
" id="DejaVuSans-102"/>
      <path d="M 41.109375 46.296875 
Q 39.59375 47.171875 37.8125 47.578125 
Q 36.03125 48 33.890625 48 
Q 26.265625 48 22.1875 43.046875 
Q 18.109375 38.09375 18.109375 28.8125 
L 18.109375 0 
L 9.078125 0 
L 9.078125 54.6875 
L 18.109375 54.6875 
L 18.109375 46.1875 
Q 20.953125 51.171875 25.484375 53.578125 
Q 30.03125 56 36.53125 56 
Q 37.453125 56 38.578125 55.875 
Q 39.703125 55.765625 41.0625 55.515625 
z
" id="DejaVuSans-114"/>
      <path d="M 34.28125 27.484375 
Q 23.390625 27.484375 19.1875 25 
Q 14.984375 22.515625 14.984375 16.5 
Q 14.984375 11.71875 18.140625 8.90625 
Q 21.296875 6.109375 26.703125 6.109375 
Q 34.1875 6.109375 38.703125 11.40625 
Q 43.21875 16.703125 43.21875 25.484375 
L 43.21875 27.484375 
z
M 52.203125 31.203125 
L 52.203125 0 
L 43.21875 0 
L 43.21875 8.296875 
Q 40.140625 3.328125 35.546875 0.953125 
Q 30.953125 -1.421875 24.3125 -1.421875 
Q 15.921875 -1.421875 10.953125 3.296875 
Q 6 8.015625 6 15.921875 
Q 6 25.140625 12.171875 29.828125 
Q 18.359375 34.515625 30.609375 34.515625 
L 43.21875 34.515625 
L 43.21875 35.40625 
Q 43.21875 41.609375 39.140625 45 
Q 35.0625 48.390625 27.6875 48.390625 
Q 23 48.390625 18.546875 47.265625 
Q 14.109375 46.140625 10.015625 43.890625 
L 10.015625 52.203125 
Q 14.9375 54.109375 19.578125 55.046875 
Q 24.21875 56 28.609375 56 
Q 40.484375 56 46.34375 49.84375 
Q 52.203125 43.703125 52.203125 31.203125 
z
" id="DejaVuSans-97"/>
      <path d="M 52 44.1875 
Q 55.375 50.25 60.0625 53.125 
Q 64.75 56 71.09375 56 
Q 79.640625 56 84.28125 50.015625 
Q 88.921875 44.046875 88.921875 33.015625 
L 88.921875 0 
L 79.890625 0 
L 79.890625 32.71875 
Q 79.890625 40.578125 77.09375 44.375 
Q 74.3125 48.1875 68.609375 48.1875 
Q 61.625 48.1875 57.5625 43.546875 
Q 53.515625 38.921875 53.515625 30.90625 
L 53.515625 0 
L 44.484375 0 
L 44.484375 32.71875 
Q 44.484375 40.625 41.703125 44.40625 
Q 38.921875 48.1875 33.109375 48.1875 
Q 26.21875 48.1875 22.15625 43.53125 
Q 18.109375 38.875 18.109375 30.90625 
L 18.109375 0 
L 9.078125 0 
L 9.078125 54.6875 
L 18.109375 54.6875 
L 18.109375 46.1875 
Q 21.1875 51.21875 25.484375 53.609375 
Q 29.78125 56 35.6875 56 
Q 41.65625 56 45.828125 52.96875 
Q 50 49.953125 52 44.1875 
z
" id="DejaVuSans-109"/>
      <path d="M 56.203125 29.59375 
L 56.203125 25.203125 
L 14.890625 25.203125 
Q 15.484375 15.921875 20.484375 11.0625 
Q 25.484375 6.203125 34.421875 6.203125 
Q 39.59375 6.203125 44.453125 7.46875 
Q 49.3125 8.734375 54.109375 11.28125 
L 54.109375 2.78125 
Q 49.265625 0.734375 44.1875 -0.34375 
Q 39.109375 -1.421875 33.890625 -1.421875 
Q 20.796875 -1.421875 13.15625 6.1875 
Q 5.515625 13.8125 5.515625 26.8125 
Q 5.515625 40.234375 12.765625 48.109375 
Q 20.015625 56 32.328125 56 
Q 43.359375 56 49.78125 48.890625 
Q 56.203125 41.796875 56.203125 29.59375 
z
M 47.21875 32.234375 
Q 47.125 39.59375 43.09375 43.984375 
Q 39.0625 48.390625 32.421875 48.390625 
Q 24.90625 48.390625 20.390625 44.140625 
Q 15.875 39.890625 15.1875 32.171875 
z
" id="DejaVuSans-101"/>
     </defs>
     <g transform="translate(217.764258 274.476562)scale(0.1 -0.1)">
      <use xlink:href="#DejaVuSans-102"/>
      <use x="35.205078" xlink:href="#DejaVuSans-114"/>
      <use x="76.318359" xlink:href="#DejaVuSans-97"/>
      <use x="137.597656" xlink:href="#DejaVuSans-109"/>
      <use x="235.009766" xlink:href="#DejaVuSans-101"/>
     </g>
    </g>
   </g>
   <g id="matplotlib.axis_2">
    <g id="ytick_1">
     <g id="line2d_7">
      <defs>
       <path d="M 0 0 
L -3.5 0 
" id="m9a32c4d038" style="stroke:#000000;stroke-width:0.8;"/>
      </defs>
      <g>
       <use style="stroke:#000000;stroke-width:0.8;" x="44.55" xlink:href="#m9a32c4d038" y="220.890216"/>
      </g>
     </g>
     <g id="text_8">
      <!-- 14 -->
      <g transform="translate(24.825 224.689435)scale(0.1 -0.1)">
       <use xlink:href="#DejaVuSans-49"/>
       <use x="63.623047" xlink:href="#DejaVuSans-52"/>
      </g>
     </g>
    </g>
    <g id="ytick_2">
     <g id="line2d_8">
      <g>
       <use style="stroke:#000000;stroke-width:0.8;" x="44.55" xlink:href="#m9a32c4d038" y="181.003191"/>
      </g>
     </g>
     <g id="text_9">
      <!-- 16 -->
      <g transform="translate(24.825 184.802409)scale(0.1 -0.1)">
       <use xlink:href="#DejaVuSans-49"/>
       <use x="63.623047" xlink:href="#DejaVuSans-54"/>
      </g>
     </g>
    </g>
    <g id="ytick_3">
     <g id="line2d_9">
      <g>
       <use style="stroke:#000000;stroke-width:0.8;" x="44.55" xlink:href="#m9a32c4d038" y="141.116165"/>
      </g>
     </g>
     <g id="text_10">
      <!-- 18 -->
      <g transform="translate(24.825 144.915384)scale(0.1 -0.1)">
       <use xlink:href="#DejaVuSans-49"/>
       <use x="63.623047" xlink:href="#DejaVuSans-56"/>
      </g>
     </g>
    </g>
    <g id="ytick_4">
     <g id="line2d_10">
      <g>
       <use style="stroke:#000000;stroke-width:0.8;" x="44.55" xlink:href="#m9a32c4d038" y="101.22914"/>
      </g>
     </g>
     <g id="text_11">
      <!-- 20 -->
      <g transform="translate(24.825 105.028359)scale(0.1 -0.1)">
       <use xlink:href="#DejaVuSans-50"/>
       <use x="63.623047" xlink:href="#DejaVuSans-48"/>
      </g>
     </g>
    </g>
    <g id="ytick_5">
     <g id="line2d_11">
      <g>
       <use style="stroke:#000000;stroke-width:0.8;" x="44.55" xlink:href="#m9a32c4d038" y="61.342115"/>
      </g>
     </g>
     <g id="text_12">
      <!-- 22 -->
      <g transform="translate(24.825 65.141334)scale(0.1 -0.1)">
       <use xlink:href="#DejaVuSans-50"/>
       <use x="63.623047" xlink:href="#DejaVuSans-50"/>
      </g>
     </g>
    </g>
    <g id="text_13">
     <!-- speed -->
     <defs>
      <path d="M 44.28125 53.078125 
L 44.28125 44.578125 
Q 40.484375 46.53125 36.375 47.5 
Q 32.28125 48.484375 27.875 48.484375 
Q 21.1875 48.484375 17.84375 46.4375 
Q 14.5 44.390625 14.5 40.28125 
Q 14.5 37.15625 16.890625 35.375 
Q 19.28125 33.59375 26.515625 31.984375 
L 29.59375 31.296875 
Q 39.15625 29.25 43.1875 25.515625 
Q 47.21875 21.78125 47.21875 15.09375 
Q 47.21875 7.46875 41.1875 3.015625 
Q 35.15625 -1.421875 24.609375 -1.421875 
Q 20.21875 -1.421875 15.453125 -0.5625 
Q 10.6875 0.296875 5.421875 2 
L 5.421875 11.28125 
Q 10.40625 8.6875 15.234375 7.390625 
Q 20.0625 6.109375 24.8125 6.109375 
Q 31.15625 6.109375 34.5625 8.28125 
Q 37.984375 10.453125 37.984375 14.40625 
Q 37.984375 18.0625 35.515625 20.015625 
Q 33.0625 21.96875 24.703125 23.78125 
L 21.578125 24.515625 
Q 13.234375 26.265625 9.515625 29.90625 
Q 5.8125 33.546875 5.8125 39.890625 
Q 5.8125 47.609375 11.28125 51.796875 
Q 16.75 56 26.8125 56 
Q 31.78125 56 36.171875 55.265625 
Q 40.578125 54.546875 44.28125 53.078125 
z
" id="DejaVuSans-115"/>
      <path d="M 18.109375 8.203125 
L 18.109375 -20.796875 
L 9.078125 -20.796875 
L 9.078125 54.6875 
L 18.109375 54.6875 
L 18.109375 46.390625 
Q 20.953125 51.265625 25.265625 53.625 
Q 29.59375 56 35.59375 56 
Q 45.5625 56 51.78125 48.09375 
Q 58.015625 40.1875 58.015625 27.296875 
Q 58.015625 14.40625 51.78125 6.484375 
Q 45.5625 -1.421875 35.59375 -1.421875 
Q 29.59375 -1.421875 25.265625 0.953125 
Q 20.953125 3.328125 18.109375 8.203125 
z
M 48.6875 27.296875 
Q 48.6875 37.203125 44.609375 42.84375 
Q 40.53125 48.484375 33.40625 48.484375 
Q 26.265625 48.484375 22.1875 42.84375 
Q 18.109375 37.203125 18.109375 27.296875 
Q 18.109375 17.390625 22.1875 11.75 
Q 26.265625 6.109375 33.40625 6.109375 
Q 40.53125 6.109375 44.609375 11.75 
Q 48.6875 17.390625 48.6875 27.296875 
z
" id="DejaVuSans-112"/>
      <path d="M 45.40625 46.390625 
L 45.40625 75.984375 
L 54.390625 75.984375 
L 54.390625 0 
L 45.40625 0 
L 45.40625 8.203125 
Q 42.578125 3.328125 38.25 0.953125 
Q 33.9375 -1.421875 27.875 -1.421875 
Q 17.96875 -1.421875 11.734375 6.484375 
Q 5.515625 14.40625 5.515625 27.296875 
Q 5.515625 40.1875 11.734375 48.09375 
Q 17.96875 56 27.875 56 
Q 33.9375 56 38.25 53.625 
Q 42.578125 51.265625 45.40625 46.390625 
z
M 14.796875 27.296875 
Q 14.796875 17.390625 18.875 11.75 
Q 22.953125 6.109375 30.078125 6.109375 
Q 37.203125 6.109375 41.296875 11.75 
Q 45.40625 17.390625 45.40625 27.296875 
Q 45.40625 37.203125 41.296875 42.84375 
Q 37.203125 48.484375 30.078125 48.484375 
Q 22.953125 48.484375 18.875 42.84375 
Q 14.796875 37.203125 14.796875 27.296875 
z
" id="DejaVuSans-100"/>
     </defs>
     <g transform="translate(18.745313 151.60625)rotate(-90)scale(0.1 -0.1)">
      <use xlink:href="#DejaVuSans-115"/>
      <use x="52.099609" xlink:href="#DejaVuSans-112"/>
      <use x="115.576172" xlink:href="#DejaVuSans-101"/>
      <use x="177.099609" xlink:href="#DejaVuSans-101"/>
      <use x="238.623047" xlink:href="#DejaVuSans-100"/>
     </g>
    </g>
   </g>
   <g id="line2d_12">
    <path clip-path="url(#p27941a4ada)" d="M 61.64462 64.984904 
L 65.133318 81.252412 
L 68.622016 79.962293 
L 72.110714 83.971813 
L 75.599412 82.283927 
L 79.08811 79.855753 
L 82.576808 82.393138 
L 86.065506 85.744453 
L 89.554204 87.870163 
L 93.042902 88.070914 
L 96.5316 89.970025 
L 100.020298 86.158978 
L 103.508996 85.46011 
L 106.997693 87.550341 
L 110.486391 87.472144 
L 113.975089 92.107871 
L 117.463787 94.689253 
L 120.952485 96.514816 
L 124.441183 99.465021 
L 127.929881 101.057803 
L 131.418579 102.295089 
L 134.907277 102.995449 
L 138.395975 102.707898 
L 141.884673 105.323729 
L 145.373371 111.988995 
L 148.862069 116.165479 
L 152.350767 116.747354 
L 155.839465 117.33244 
L 159.328163 118.906935 
L 162.816861 117.270754 
L 166.305559 117.527691 
L 169.794257 116.389785 
L 173.282955 116.072289 
L 176.771653 116.980219 
L 180.260351 118.83492 
L 183.749049 120.862992 
L 187.237747 120.844193 
L 190.726445 122.525669 
L 194.215142 121.841148 
L 197.70384 122.646472 
L 201.192538 122.230445 
L 204.681236 120.368274 
L 208.169934 118.183444 
L 211.658632 115.6321 
L 215.14733 115.186438 
L 218.636028 112.535457 
L 222.124726 114.257482 
L 225.613424 112.736923 
L 229.102122 112.563351 
L 232.59082 114.173794 
L 236.079518 116.567601 
L 239.568216 117.031803 
L 243.056914 117.184517 
L 246.545612 114.311703 
L 250.03431 114.628457 
L 253.523008 113.652684 
L 257.011706 113.44319 
L 260.500404 113.96552 
L 263.989102 113.675657 
L 267.4778 112.113661 
L 270.966498 111.310728 
L 274.455196 109.0013 
L 277.943893 109.561835 
L 281.432591 109.361996 
L 284.921289 107.67003 
L 288.409987 108.897059 
L 291.898685 110.04566 
L 295.387383 110.742699 
L 298.876081 113.113298 
L 302.364779 113.603434 
L 305.853477 114.491687 
L 309.342175 115.145579 
L 312.830873 117.597239 
L 316.319571 116.56913 
L 319.808269 116.300928 
L 323.296967 116.010906 
L 326.785665 115.03295 
L 330.274363 113.810841 
L 333.763061 112.388657 
L 337.251759 111.893239 
L 340.740457 112.361855 
L 344.229155 110.586416 
L 347.717853 110.032907 
L 351.206551 109.655708 
L 354.695249 108.883684 
L 358.183947 110.351795 
L 361.672645 112.536458 
L 365.161342 113.544662 
L 368.65004 115.323699 
L 372.138738 117.460962 
L 375.627436 115.47007 
L 379.116134 115.483307 
L 382.604832 115.428073 
L 386.09353 115.203985 
L 389.582228 117.174463 
L 393.070926 120.130091 
L 396.559624 121.927697 
L 400.048322 121.797274 
L 403.53702 122.458004 
" style="fill:none;stroke:#008000;stroke-linecap:square;stroke-width:1.5;"/>
   </g>
   <g id="line2d_13">
    <path clip-path="url(#p27941a4ada)" d="M 61.64462 64.984904 
L 65.133318 161.78463 
L 68.622016 72.375736 
L 72.110714 111.184882 
L 75.599412 69.341727 
L 79.08811 59.167716 
L 82.576808 106.097705 
L 86.065506 119.70179 
L 89.554204 111.019297 
L 93.042902 90.402414 
L 96.5316 113.335734 
L 100.020298 36.772727 
L 103.508996 75.969759 
L 106.997693 117.161644 
L 110.486391 86.321071 
L 113.975089 162.76026 
L 117.463787 135.294147 
L 120.952485 126.067503 
L 124.441183 148.488625 
L 127.929881 128.162856 
L 131.418579 123.812423 
L 134.907277 115.418648 
L 138.395975 97.514305 
L 141.884673 153.354147 
L 145.373371 236.227273 
L 148.862069 195.090088 
L 152.350767 127.88205 
L 155.839465 128.657556 
L 159.328163 149.704092 
L 162.816861 84.959494 
L 166.305559 122.646216 
L 169.794257 93.539395 
L 173.282955 109.649923 
L 176.771653 135.468975 
L 180.260351 156.83447 
L 183.749049 162.646979 
L 187.237747 120.45489 
L 190.726445 157.508487 
L 194.215142 107.539012 
L 197.70384 139.538298 
L 201.192538 113.473056 
L 204.681236 81.041606 
L 208.169934 71.905039 
L 211.658632 61.442995 
L 215.14733 105.697228 
L 218.636028 55.961123 
L 222.124726 151.083623 
L 225.613424 80.15727 
L 229.102122 108.837899 
L 232.59082 148.79446 
L 236.079518 168.103631 
L 239.568216 127.038873 
L 243.056914 120.480681 
L 246.545612 52.236398 
L 250.03431 121.479781 
L 253.523008 92.527247 
L 257.011706 108.903783 
L 260.500404 125.292378 
L 263.989102 107.385447 
L 267.4778 78.195244 
L 270.966498 93.864821 
L 274.455196 58.795426 
L 277.943893 121.753664 
L 281.432591 105.013435 
L 284.921289 70.837125 
L 288.409987 135.618774 
L 291.898685 135.068118 
L 295.387383 125.932616 
L 298.876081 164.788588 
L 302.364779 124.290462 
L 305.853477 133.864062 
L 309.342175 129.40982 
L 312.830873 171.08952 
L 316.319571 94.132845 
L 319.808269 110.446997 
L 323.296967 109.679746 
L 326.785665 93.681168 
L 330.274363 87.124992 
L 333.763061 81.330285 
L 337.251759 101.072875 
L 340.740457 122.597869 
L 344.229155 71.801876 
L 347.717853 97.940496 
L 351.206551 101.414467 
L 354.695249 92.014935 
L 358.183947 142.432095 
L 361.672645 160.277211 
L 365.161342 135.577805 
L 368.65004 154.2044 
L 372.138738 164.172733 
L 375.627436 71.955593 
L 379.116134 115.772641 
L 382.604832 114.220755 
L 386.09353 110.305643 
L 389.582228 160.248377 
L 393.070926 184.740697 
L 396.559624 161.224654 
L 400.048322 118.946064 
L 403.53702 136.902636 
" style="fill:none;stroke:#0000ff;stroke-linecap:square;stroke-width:1.5;"/>
   </g>
   <g id="line2d_14">
    <path clip-path="url(#p27941a4ada)" d="M 61.64462 121.096788 
L 65.133318 120.61589 
L 68.622016 120.461966 
L 72.110714 120.168577 
L 75.599412 119.839748 
L 79.08811 119.644501 
L 82.576808 119.629384 
L 86.065506 119.005631 
L 89.554204 118.964148 
L 93.042902 118.098041 
L 96.5316 118.051672 
L 100.020298 118.016811 
L 103.508996 117.849126 
L 106.997693 117.801082 
L 110.486391 117.616764 
L 113.975089 117.304688 
L 117.463787 117.11702 
L 120.952485 117.034115 
L 124.441183 116.821776 
L 127.929881 116.769943 
L 131.418579 117.593789 
L 134.907277 120.38989 
L 138.395975 115.40447 
L 141.884673 116.627466 
L 145.373371 115.954772 
L 148.862069 116.105644 
L 152.350767 117.006652 
L 155.839465 114.914737 
L 159.328163 116.082271 
L 162.816861 117.591197 
L 166.305559 115.960376 
L 169.794257 116.370674 
L 173.282955 116.055068 
L 176.771653 116.006086 
L 180.260351 116.052954 
L 183.749049 116.198581 
L 187.237747 115.984787 
L 190.726445 115.870111 
L 194.215142 116.134164 
L 197.70384 116.04378 
L 201.192538 115.999585 
L 204.681236 116.01909 
L 208.169934 116.339502 
L 211.658632 116.307213 
L 215.14733 116.19194 
L 218.636028 116.235556 
L 222.124726 116.200835 
L 225.613424 115.955908 
L 229.102122 116.278196 
L 232.59082 116.345625 
L 236.079518 116.324485 
L 239.568216 116.260585 
L 243.056914 115.885647 
L 246.545612 115.88828 
L 250.03431 115.773146 
L 253.523008 115.657813 
L 257.011706 115.629313 
L 260.500404 115.32338 
L 263.989102 115.214568 
L 267.4778 115.007375 
L 270.966498 115.043393 
L 274.455196 114.985956 
L 277.943893 114.589439 
L 281.432591 114.419839 
L 284.921289 114.466048 
L 288.409987 114.569096 
L 291.898685 114.462419 
L 295.387383 114.584513 
L 298.876081 114.43356 
L 302.364779 114.662612 
L 305.853477 114.67745 
L 309.342175 114.726231 
L 312.830873 114.571051 
L 316.319571 114.309352 
L 319.808269 114.516824 
L 323.296967 114.569076 
L 326.785665 114.361145 
L 330.274363 114.363918 
L 333.763061 114.431127 
L 337.251759 114.440361 
L 340.740457 114.827185 
L 344.229155 114.904068 
L 347.717853 115.189898 
L 351.206551 115.2244 
L 354.695249 115.061043 
L 358.183947 115.151228 
L 361.672645 115.159065 
L 365.161342 115.431155 
L 368.65004 115.685833 
L 372.138738 115.850308 
L 375.627436 115.850327 
L 379.116134 115.69427 
L 382.604832 115.850308 
L 386.09353 114.944334 
L 389.582228 111.264596 
L 393.070926 111.95514 
L 396.559624 113.336428 
L 400.048322 113.068407 
L 403.53702 113.085279 
" style="fill:none;stroke:#ff0000;stroke-linecap:square;stroke-width:1.5;"/>
   </g>
   <g id="patch_3">
    <path d="M 44.55 246.2 
L 44.55 26.8 
" style="fill:none;stroke:#000000;stroke-linecap:square;stroke-linejoin:miter;stroke-width:0.8;"/>
   </g>
   <g id="patch_4">
    <path d="M 420.63164 246.2 
L 420.63164 26.8 
" style="fill:none;stroke:#000000;stroke-linecap:square;stroke-linejoin:miter;stroke-width:0.8;"/>
   </g>
   <g id="patch_5">
    <path d="M 44.55 246.2 
L 420.63164 246.2 
" style="fill:none;stroke:#000000;stroke-linecap:square;stroke-linejoin:miter;stroke-width:0.8;"/>
   </g>
   <g id="patch_6">
    <path d="M 44.55 26.8 
L 420.63164 26.8 
" style="fill:none;stroke:#000000;stroke-linecap:square;stroke-linejoin:miter;stroke-width:0.8;"/>
   </g>
   <g id="text_14">
    <!-- Validation Segment 17 -->
    <defs>
     <path d="M 28.609375 0 
L 0.78125 72.90625 
L 11.078125 72.90625 
L 34.1875 11.53125 
L 57.328125 72.90625 
L 67.578125 72.90625 
L 39.796875 0 
z
" id="DejaVuSans-86"/>
     <path d="M 9.421875 75.984375 
L 18.40625 75.984375 
L 18.40625 0 
L 9.421875 0 
z
" id="DejaVuSans-108"/>
     <path d="M 9.421875 54.6875 
L 18.40625 54.6875 
L 18.40625 0 
L 9.421875 0 
z
M 9.421875 75.984375 
L 18.40625 75.984375 
L 18.40625 64.59375 
L 9.421875 64.59375 
z
" id="DejaVuSans-105"/>
     <path d="M 18.3125 70.21875 
L 18.3125 54.6875 
L 36.8125 54.6875 
L 36.8125 47.703125 
L 18.3125 47.703125 
L 18.3125 18.015625 
Q 18.3125 11.328125 20.140625 9.421875 
Q 21.96875 7.515625 27.59375 7.515625 
L 36.8125 7.515625 
L 36.8125 0 
L 27.59375 0 
Q 17.1875 0 13.234375 3.875 
Q 9.28125 7.765625 9.28125 18.015625 
L 9.28125 47.703125 
L 2.6875 47.703125 
L 2.6875 54.6875 
L 9.28125 54.6875 
L 9.28125 70.21875 
z
" id="DejaVuSans-116"/>
     <path d="M 30.609375 48.390625 
Q 23.390625 48.390625 19.1875 42.75 
Q 14.984375 37.109375 14.984375 27.296875 
Q 14.984375 17.484375 19.15625 11.84375 
Q 23.34375 6.203125 30.609375 6.203125 
Q 37.796875 6.203125 41.984375 11.859375 
Q 46.1875 17.53125 46.1875 27.296875 
Q 46.1875 37.015625 41.984375 42.703125 
Q 37.796875 48.390625 30.609375 48.390625 
z
M 30.609375 56 
Q 42.328125 56 49.015625 48.375 
Q 55.71875 40.765625 55.71875 27.296875 
Q 55.71875 13.875 49.015625 6.21875 
Q 42.328125 -1.421875 30.609375 -1.421875 
Q 18.84375 -1.421875 12.171875 6.21875 
Q 5.515625 13.875 5.515625 27.296875 
Q 5.515625 40.765625 12.171875 48.375 
Q 18.84375 56 30.609375 56 
z
" id="DejaVuSans-111"/>
     <path d="M 54.890625 33.015625 
L 54.890625 0 
L 45.90625 0 
L 45.90625 32.71875 
Q 45.90625 40.484375 42.875 44.328125 
Q 39.84375 48.1875 33.796875 48.1875 
Q 26.515625 48.1875 22.3125 43.546875 
Q 18.109375 38.921875 18.109375 30.90625 
L 18.109375 0 
L 9.078125 0 
L 9.078125 54.6875 
L 18.109375 54.6875 
L 18.109375 46.1875 
Q 21.34375 51.125 25.703125 53.5625 
Q 30.078125 56 35.796875 56 
Q 45.21875 56 50.046875 50.171875 
Q 54.890625 44.34375 54.890625 33.015625 
z
" id="DejaVuSans-110"/>
     <path id="DejaVuSans-32"/>
     <path d="M 53.515625 70.515625 
L 53.515625 60.890625 
Q 47.90625 63.578125 42.921875 64.890625 
Q 37.9375 66.21875 33.296875 66.21875 
Q 25.25 66.21875 20.875 63.09375 
Q 16.5 59.96875 16.5 54.203125 
Q 16.5 49.359375 19.40625 46.890625 
Q 22.3125 44.4375 30.421875 42.921875 
L 36.375 41.703125 
Q 47.40625 39.59375 52.65625 34.296875 
Q 57.90625 29 57.90625 20.125 
Q 57.90625 9.515625 50.796875 4.046875 
Q 43.703125 -1.421875 29.984375 -1.421875 
Q 24.8125 -1.421875 18.96875 -0.25 
Q 13.140625 0.921875 6.890625 3.21875 
L 6.890625 13.375 
Q 12.890625 10.015625 18.65625 8.296875 
Q 24.421875 6.59375 29.984375 6.59375 
Q 38.421875 6.59375 43.015625 9.90625 
Q 47.609375 13.234375 47.609375 19.390625 
Q 47.609375 24.75 44.3125 27.78125 
Q 41.015625 30.8125 33.5 32.328125 
L 27.484375 33.5 
Q 16.453125 35.6875 11.515625 40.375 
Q 6.59375 45.0625 6.59375 53.421875 
Q 6.59375 63.09375 13.40625 68.65625 
Q 20.21875 74.21875 32.171875 74.21875 
Q 37.3125 74.21875 42.625 73.28125 
Q 47.953125 72.359375 53.515625 70.515625 
z
" id="DejaVuSans-83"/>
     <path d="M 45.40625 27.984375 
Q 45.40625 37.75 41.375 43.109375 
Q 37.359375 48.484375 30.078125 48.484375 
Q 22.859375 48.484375 18.828125 43.109375 
Q 14.796875 37.75 14.796875 27.984375 
Q 14.796875 18.265625 18.828125 12.890625 
Q 22.859375 7.515625 30.078125 7.515625 
Q 37.359375 7.515625 41.375 12.890625 
Q 45.40625 18.265625 45.40625 27.984375 
z
M 54.390625 6.78125 
Q 54.390625 -7.171875 48.1875 -13.984375 
Q 42 -20.796875 29.203125 -20.796875 
Q 24.46875 -20.796875 20.265625 -20.09375 
Q 16.0625 -19.390625 12.109375 -17.921875 
L 12.109375 -9.1875 
Q 16.0625 -11.328125 19.921875 -12.34375 
Q 23.78125 -13.375 27.78125 -13.375 
Q 36.625 -13.375 41.015625 -8.765625 
Q 45.40625 -4.15625 45.40625 5.171875 
L 45.40625 9.625 
Q 42.625 4.78125 38.28125 2.390625 
Q 33.9375 0 27.875 0 
Q 17.828125 0 11.671875 7.65625 
Q 5.515625 15.328125 5.515625 27.984375 
Q 5.515625 40.671875 11.671875 48.328125 
Q 17.828125 56 27.875 56 
Q 33.9375 56 38.28125 53.609375 
Q 42.625 51.21875 45.40625 46.390625 
L 45.40625 54.6875 
L 54.390625 54.6875 
z
" id="DejaVuSans-103"/>
    </defs>
    <g transform="translate(164.512383 20.8)scale(0.12 -0.12)">
     <use xlink:href="#DejaVuSans-86"/>
     <use x="60.658203" xlink:href="#DejaVuSans-97"/>
     <use x="121.9375" xlink:href="#DejaVuSans-108"/>
     <use x="149.720703" xlink:href="#DejaVuSans-105"/>
     <use x="177.503906" xlink:href="#DejaVuSans-100"/>
     <use x="240.980469" xlink:href="#DejaVuSans-97"/>
     <use x="302.259766" xlink:href="#DejaVuSans-116"/>
     <use x="341.46875" xlink:href="#DejaVuSans-105"/>
     <use x="369.251953" xlink:href="#DejaVuSans-111"/>
     <use x="430.433594" xlink:href="#DejaVuSans-110"/>
     <use x="493.8125" xlink:href="#DejaVuSans-32"/>
     <use x="525.599609" xlink:href="#DejaVuSans-83"/>
     <use x="589.076172" xlink:href="#DejaVuSans-101"/>
     <use x="650.599609" xlink:href="#DejaVuSans-103"/>
     <use x="714.076172" xlink:href="#DejaVuSans-109"/>
     <use x="811.488281" xlink:href="#DejaVuSans-101"/>
     <use x="873.011719" xlink:href="#DejaVuSans-110"/>
     <use x="936.390625" xlink:href="#DejaVuSans-116"/>
     <use x="975.599609" xlink:href="#DejaVuSans-32"/>
     <use x="1007.386719" xlink:href="#DejaVuSans-49"/>
     <use x="1071.009766" xlink:href="#DejaVuSans-55"/>
    </g>
   </g>
   <g id="legend_1">
    <g id="patch_7">
     <path d="M 274.598828 241.2 
L 413.63164 241.2 
Q 415.63164 241.2 415.63164 239.2 
L 415.63164 196.165625 
Q 415.63164 194.165625 413.63164 194.165625 
L 274.598828 194.165625 
Q 272.598828 194.165625 272.598828 196.165625 
L 272.598828 239.2 
Q 272.598828 241.2 274.598828 241.2 
z
" style="fill:#ffffff;opacity:0.8;stroke:#cccccc;stroke-linejoin:miter;"/>
    </g>
    <g id="line2d_15">
     <path d="M 276.598828 202.264062 
L 296.598828 202.264062 
" style="fill:none;stroke:#008000;stroke-linecap:square;stroke-width:1.5;"/>
    </g>
    <g id="line2d_16"/>
    <g id="text_15">
     <!-- estimated speed (KF) -->
     <defs>
      <path d="M 31 75.875 
Q 24.46875 64.65625 21.28125 53.65625 
Q 18.109375 42.671875 18.109375 31.390625 
Q 18.109375 20.125 21.3125 9.0625 
Q 24.515625 -2 31 -13.1875 
L 23.1875 -13.1875 
Q 15.875 -1.703125 12.234375 9.375 
Q 8.59375 20.453125 8.59375 31.390625 
Q 8.59375 42.28125 12.203125 53.3125 
Q 15.828125 64.359375 23.1875 75.875 
z
" id="DejaVuSans-40"/>
      <path d="M 9.8125 72.90625 
L 19.671875 72.90625 
L 19.671875 42.09375 
L 52.390625 72.90625 
L 65.09375 72.90625 
L 28.90625 38.921875 
L 67.671875 0 
L 54.6875 0 
L 19.671875 35.109375 
L 19.671875 0 
L 9.8125 0 
z
" id="DejaVuSans-75"/>
      <path d="M 9.8125 72.90625 
L 51.703125 72.90625 
L 51.703125 64.59375 
L 19.671875 64.59375 
L 19.671875 43.109375 
L 48.578125 43.109375 
L 48.578125 34.8125 
L 19.671875 34.8125 
L 19.671875 0 
L 9.8125 0 
z
" id="DejaVuSans-70"/>
      <path d="M 8.015625 75.875 
L 15.828125 75.875 
Q 23.140625 64.359375 26.78125 53.3125 
Q 30.421875 42.28125 30.421875 31.390625 
Q 30.421875 20.453125 26.78125 9.375 
Q 23.140625 -1.703125 15.828125 -13.1875 
L 8.015625 -13.1875 
Q 14.5 -2 17.703125 9.0625 
Q 20.90625 20.125 20.90625 31.390625 
Q 20.90625 42.671875 17.703125 53.65625 
Q 14.5 64.65625 8.015625 75.875 
z
" id="DejaVuSans-41"/>
     </defs>
     <g transform="translate(304.598828 205.764062)scale(0.1 -0.1)">
      <use xlink:href="#DejaVuSans-101"/>
      <use x="61.523438" xlink:href="#DejaVuSans-115"/>
      <use x="113.623047" xlink:href="#DejaVuSans-116"/>
      <use x="152.832031" xlink:href="#DejaVuSans-105"/>
      <use x="180.615234" xlink:href="#DejaVuSans-109"/>
      <use x="278.027344" xlink:href="#DejaVuSans-97"/>
      <use x="339.306641" xlink:href="#DejaVuSans-116"/>
      <use x="378.515625" xlink:href="#DejaVuSans-101"/>
      <use x="440.039062" xlink:href="#DejaVuSans-100"/>
      <use x="503.515625" xlink:href="#DejaVuSans-32"/>
      <use x="535.302734" xlink:href="#DejaVuSans-115"/>
      <use x="587.402344" xlink:href="#DejaVuSans-112"/>
      <use x="650.878906" xlink:href="#DejaVuSans-101"/>
      <use x="712.402344" xlink:href="#DejaVuSans-101"/>
      <use x="773.925781" xlink:href="#DejaVuSans-100"/>
      <use x="837.402344" xlink:href="#DejaVuSans-32"/>
      <use x="869.189453" xlink:href="#DejaVuSans-40"/>
      <use x="908.203125" xlink:href="#DejaVuSans-75"/>
      <use x="973.779297" xlink:href="#DejaVuSans-70"/>
      <use x="1031.298828" xlink:href="#DejaVuSans-41"/>
     </g>
    </g>
    <g id="line2d_17">
     <path d="M 276.598828 216.942187 
L 296.598828 216.942187 
" style="fill:none;stroke:#0000ff;stroke-linecap:square;stroke-width:1.5;"/>
    </g>
    <g id="line2d_18"/>
    <g id="text_16">
     <!-- predicted speed -->
     <defs>
      <path d="M 48.78125 52.59375 
L 48.78125 44.1875 
Q 44.96875 46.296875 41.140625 47.34375 
Q 37.3125 48.390625 33.40625 48.390625 
Q 24.65625 48.390625 19.8125 42.84375 
Q 14.984375 37.3125 14.984375 27.296875 
Q 14.984375 17.28125 19.8125 11.734375 
Q 24.65625 6.203125 33.40625 6.203125 
Q 37.3125 6.203125 41.140625 7.25 
Q 44.96875 8.296875 48.78125 10.40625 
L 48.78125 2.09375 
Q 45.015625 0.34375 40.984375 -0.53125 
Q 36.96875 -1.421875 32.421875 -1.421875 
Q 20.0625 -1.421875 12.78125 6.34375 
Q 5.515625 14.109375 5.515625 27.296875 
Q 5.515625 40.671875 12.859375 48.328125 
Q 20.21875 56 33.015625 56 
Q 37.15625 56 41.109375 55.140625 
Q 45.0625 54.296875 48.78125 52.59375 
z
" id="DejaVuSans-99"/>
     </defs>
     <g transform="translate(304.598828 220.442187)scale(0.1 -0.1)">
      <use xlink:href="#DejaVuSans-112"/>
      <use x="63.476562" xlink:href="#DejaVuSans-114"/>
      <use x="102.339844" xlink:href="#DejaVuSans-101"/>
      <use x="163.863281" xlink:href="#DejaVuSans-100"/>
      <use x="227.339844" xlink:href="#DejaVuSans-105"/>
      <use x="255.123047" xlink:href="#DejaVuSans-99"/>
      <use x="310.103516" xlink:href="#DejaVuSans-116"/>
      <use x="349.3125" xlink:href="#DejaVuSans-101"/>
      <use x="410.835938" xlink:href="#DejaVuSans-100"/>
      <use x="474.3125" xlink:href="#DejaVuSans-32"/>
      <use x="506.099609" xlink:href="#DejaVuSans-115"/>
      <use x="558.199219" xlink:href="#DejaVuSans-112"/>
      <use x="621.675781" xlink:href="#DejaVuSans-101"/>
      <use x="683.199219" xlink:href="#DejaVuSans-101"/>
      <use x="744.722656" xlink:href="#DejaVuSans-100"/>
     </g>
    </g>
    <g id="line2d_19">
     <path d="M 276.598828 231.620313 
L 296.598828 231.620313 
" style="fill:none;stroke:#ff0000;stroke-linecap:square;stroke-width:1.5;"/>
    </g>
    <g id="line2d_20"/>
    <g id="text_17">
     <!-- true speed -->
     <defs>
      <path d="M 8.5 21.578125 
L 8.5 54.6875 
L 17.484375 54.6875 
L 17.484375 21.921875 
Q 17.484375 14.15625 20.5 10.265625 
Q 23.53125 6.390625 29.59375 6.390625 
Q 36.859375 6.390625 41.078125 11.03125 
Q 45.3125 15.671875 45.3125 23.6875 
L 45.3125 54.6875 
L 54.296875 54.6875 
L 54.296875 0 
L 45.3125 0 
L 45.3125 8.40625 
Q 42.046875 3.421875 37.71875 1 
Q 33.40625 -1.421875 27.6875 -1.421875 
Q 18.265625 -1.421875 13.375 4.4375 
Q 8.5 10.296875 8.5 21.578125 
z
M 31.109375 56 
z
" id="DejaVuSans-117"/>
     </defs>
     <g transform="translate(304.598828 235.120313)scale(0.1 -0.1)">
      <use xlink:href="#DejaVuSans-116"/>
      <use x="39.208984" xlink:href="#DejaVuSans-114"/>
      <use x="80.322266" xlink:href="#DejaVuSans-117"/>
      <use x="143.701172" xlink:href="#DejaVuSans-101"/>
      <use x="205.224609" xlink:href="#DejaVuSans-32"/>
      <use x="237.011719" xlink:href="#DejaVuSans-115"/>
      <use x="289.111328" xlink:href="#DejaVuSans-112"/>
      <use x="352.587891" xlink:href="#DejaVuSans-101"/>
      <use x="414.111328" xlink:href="#DejaVuSans-101"/>
      <use x="475.634766" xlink:href="#DejaVuSans-100"/>
     </g>
    </g>
   </g>
  </g>
  <g id="axes_2">
   <g id="patch_8">
    <path d="M 469.55625 246.2 
L 845.63789 246.2 
L 845.63789 26.8 
L 469.55625 26.8 
z
" style="fill:#ffffff;"/>
   </g>
   <g id="matplotlib.axis_3">
    <g id="xtick_7">
     <g id="line2d_21">
      <g>
       <use style="stroke:#000000;stroke-width:0.8;" x="486.65087" xlink:href="#m4467c79d5c" y="246.2"/>
      </g>
     </g>
     <g id="text_18">
      <!-- 18400 -->
      <g transform="translate(470.74462 260.798437)scale(0.1 -0.1)">
       <use xlink:href="#DejaVuSans-49"/>
       <use x="63.623047" xlink:href="#DejaVuSans-56"/>
       <use x="127.246094" xlink:href="#DejaVuSans-52"/>
       <use x="190.869141" xlink:href="#DejaVuSans-48"/>
       <use x="254.492188" xlink:href="#DejaVuSans-48"/>
      </g>
     </g>
    </g>
    <g id="xtick_8">
     <g id="line2d_22">
      <g>
       <use style="stroke:#000000;stroke-width:0.8;" x="556.424829" xlink:href="#m4467c79d5c" y="246.2"/>
      </g>
     </g>
     <g id="text_19">
      <!-- 18420 -->
      <g transform="translate(540.518579 260.798437)scale(0.1 -0.1)">
       <use xlink:href="#DejaVuSans-49"/>
       <use x="63.623047" xlink:href="#DejaVuSans-56"/>
       <use x="127.246094" xlink:href="#DejaVuSans-52"/>
       <use x="190.869141" xlink:href="#DejaVuSans-50"/>
       <use x="254.492188" xlink:href="#DejaVuSans-48"/>
      </g>
     </g>
    </g>
    <g id="xtick_9">
     <g id="line2d_23">
      <g>
       <use style="stroke:#000000;stroke-width:0.8;" x="626.198788" xlink:href="#m4467c79d5c" y="246.2"/>
      </g>
     </g>
     <g id="text_20">
      <!-- 18440 -->
      <g transform="translate(610.292538 260.798437)scale(0.1 -0.1)">
       <use xlink:href="#DejaVuSans-49"/>
       <use x="63.623047" xlink:href="#DejaVuSans-56"/>
       <use x="127.246094" xlink:href="#DejaVuSans-52"/>
       <use x="190.869141" xlink:href="#DejaVuSans-52"/>
       <use x="254.492188" xlink:href="#DejaVuSans-48"/>
      </g>
     </g>
    </g>
    <g id="xtick_10">
     <g id="line2d_24">
      <g>
       <use style="stroke:#000000;stroke-width:0.8;" x="695.972748" xlink:href="#m4467c79d5c" y="246.2"/>
      </g>
     </g>
     <g id="text_21">
      <!-- 18460 -->
      <g transform="translate(680.066498 260.798437)scale(0.1 -0.1)">
       <use xlink:href="#DejaVuSans-49"/>
       <use x="63.623047" xlink:href="#DejaVuSans-56"/>
       <use x="127.246094" xlink:href="#DejaVuSans-52"/>
       <use x="190.869141" xlink:href="#DejaVuSans-54"/>
       <use x="254.492188" xlink:href="#DejaVuSans-48"/>
      </g>
     </g>
    </g>
    <g id="xtick_11">
     <g id="line2d_25">
      <g>
       <use style="stroke:#000000;stroke-width:0.8;" x="765.746707" xlink:href="#m4467c79d5c" y="246.2"/>
      </g>
     </g>
     <g id="text_22">
      <!-- 18480 -->
      <g transform="translate(749.840457 260.798437)scale(0.1 -0.1)">
       <use xlink:href="#DejaVuSans-49"/>
       <use x="63.623047" xlink:href="#DejaVuSans-56"/>
       <use x="127.246094" xlink:href="#DejaVuSans-52"/>
       <use x="190.869141" xlink:href="#DejaVuSans-56"/>
       <use x="254.492188" xlink:href="#DejaVuSans-48"/>
      </g>
     </g>
    </g>
    <g id="xtick_12">
     <g id="line2d_26">
      <g>
       <use style="stroke:#000000;stroke-width:0.8;" x="835.520666" xlink:href="#m4467c79d5c" y="246.2"/>
      </g>
     </g>
     <g id="text_23">
      <!-- 18500 -->
      <defs>
       <path d="M 10.796875 72.90625 
L 49.515625 72.90625 
L 49.515625 64.59375 
L 19.828125 64.59375 
L 19.828125 46.734375 
Q 21.96875 47.46875 24.109375 47.828125 
Q 26.265625 48.1875 28.421875 48.1875 
Q 40.625 48.1875 47.75 41.5 
Q 54.890625 34.8125 54.890625 23.390625 
Q 54.890625 11.625 47.5625 5.09375 
Q 40.234375 -1.421875 26.90625 -1.421875 
Q 22.3125 -1.421875 17.546875 -0.640625 
Q 12.796875 0.140625 7.71875 1.703125 
L 7.71875 11.625 
Q 12.109375 9.234375 16.796875 8.0625 
Q 21.484375 6.890625 26.703125 6.890625 
Q 35.15625 6.890625 40.078125 11.328125 
Q 45.015625 15.765625 45.015625 23.390625 
Q 45.015625 31 40.078125 35.4375 
Q 35.15625 39.890625 26.703125 39.890625 
Q 22.75 39.890625 18.8125 39.015625 
Q 14.890625 38.140625 10.796875 36.28125 
z
" id="DejaVuSans-53"/>
      </defs>
      <g transform="translate(819.614416 260.798437)scale(0.1 -0.1)">
       <use xlink:href="#DejaVuSans-49"/>
       <use x="63.623047" xlink:href="#DejaVuSans-56"/>
       <use x="127.246094" xlink:href="#DejaVuSans-53"/>
       <use x="190.869141" xlink:href="#DejaVuSans-48"/>
       <use x="254.492188" xlink:href="#DejaVuSans-48"/>
      </g>
     </g>
    </g>
    <g id="text_24">
     <!-- frame -->
     <g transform="translate(642.770508 274.476562)scale(0.1 -0.1)">
      <use xlink:href="#DejaVuSans-102"/>
      <use x="35.205078" xlink:href="#DejaVuSans-114"/>
      <use x="76.318359" xlink:href="#DejaVuSans-97"/>
      <use x="137.597656" xlink:href="#DejaVuSans-109"/>
      <use x="235.009766" xlink:href="#DejaVuSans-101"/>
     </g>
    </g>
   </g>
   <g id="matplotlib.axis_4">
    <g id="ytick_6">
     <g id="line2d_27">
      <g>
       <use style="stroke:#000000;stroke-width:0.8;" x="469.55625" xlink:href="#m9a32c4d038" y="203.727066"/>
      </g>
     </g>
     <g id="text_25">
      <!-- 6 -->
      <g transform="translate(456.19375 207.526285)scale(0.1 -0.1)">
       <use xlink:href="#DejaVuSans-54"/>
      </g>
     </g>
    </g>
    <g id="ytick_7">
     <g id="line2d_28">
      <g>
       <use style="stroke:#000000;stroke-width:0.8;" x="469.55625" xlink:href="#m9a32c4d038" y="160.796934"/>
      </g>
     </g>
     <g id="text_26">
      <!-- 8 -->
      <g transform="translate(456.19375 164.596153)scale(0.1 -0.1)">
       <use xlink:href="#DejaVuSans-56"/>
      </g>
     </g>
    </g>
    <g id="ytick_8">
     <g id="line2d_29">
      <g>
       <use style="stroke:#000000;stroke-width:0.8;" x="469.55625" xlink:href="#m9a32c4d038" y="117.866802"/>
      </g>
     </g>
     <g id="text_27">
      <!-- 10 -->
      <g transform="translate(449.83125 121.666021)scale(0.1 -0.1)">
       <use xlink:href="#DejaVuSans-49"/>
       <use x="63.623047" xlink:href="#DejaVuSans-48"/>
      </g>
     </g>
    </g>
    <g id="ytick_9">
     <g id="line2d_30">
      <g>
       <use style="stroke:#000000;stroke-width:0.8;" x="469.55625" xlink:href="#m9a32c4d038" y="74.93667"/>
      </g>
     </g>
     <g id="text_28">
      <!-- 12 -->
      <g transform="translate(449.83125 78.735889)scale(0.1 -0.1)">
       <use xlink:href="#DejaVuSans-49"/>
       <use x="63.623047" xlink:href="#DejaVuSans-50"/>
      </g>
     </g>
    </g>
    <g id="ytick_10">
     <g id="line2d_31">
      <g>
       <use style="stroke:#000000;stroke-width:0.8;" x="469.55625" xlink:href="#m9a32c4d038" y="32.006538"/>
      </g>
     </g>
     <g id="text_29">
      <!-- 14 -->
      <g transform="translate(449.83125 35.805757)scale(0.1 -0.1)">
       <use xlink:href="#DejaVuSans-49"/>
       <use x="63.623047" xlink:href="#DejaVuSans-52"/>
      </g>
     </g>
    </g>
    <g id="text_30">
     <!-- speed -->
     <g transform="translate(443.751562 151.60625)rotate(-90)scale(0.1 -0.1)">
      <use xlink:href="#DejaVuSans-115"/>
      <use x="52.099609" xlink:href="#DejaVuSans-112"/>
      <use x="115.576172" xlink:href="#DejaVuSans-101"/>
      <use x="177.099609" xlink:href="#DejaVuSans-101"/>
      <use x="238.623047" xlink:href="#DejaVuSans-100"/>
     </g>
    </g>
   </g>
   <g id="line2d_32">
    <path clip-path="url(#p23c70fef85)" d="M 486.65087 223.190253 
L 490.139568 223.696709 
L 493.628266 215.391499 
L 497.116964 203.891753 
L 500.605662 198.990131 
L 504.09436 185.680989 
L 507.583058 181.628316 
L 511.071756 178.421453 
L 514.560454 176.113295 
L 518.049152 175.640731 
L 521.53785 174.790017 
L 525.026548 172.298958 
L 528.515246 172.256753 
L 532.003943 169.744233 
L 535.492641 168.914454 
L 538.981339 168.388379 
L 542.470037 169.438979 
L 545.958735 168.973668 
L 549.447433 171.305255 
L 552.936131 172.940634 
L 556.424829 173.35771 
L 559.913527 174.96806 
L 563.402225 175.132318 
L 566.890923 176.561842 
L 570.379621 174.55044 
L 573.868319 174.773089 
L 577.357017 173.461056 
L 580.845715 172.024291 
L 584.334413 168.991363 
L 587.823111 168.071209 
L 591.311809 168.05431 
L 594.800507 167.406726 
L 598.289205 166.652103 
L 601.777903 164.847935 
L 605.266601 161.856347 
L 608.755299 161.153745 
L 612.243997 159.329367 
L 615.732695 160.671181 
L 619.221392 159.787077 
L 622.71009 157.651128 
L 626.198788 158.042885 
L 629.687486 157.961752 
L 633.176184 158.368069 
L 636.664882 157.841208 
L 640.15358 158.1473 
L 643.642278 161.364259 
L 647.130976 155.798501 
L 650.619674 155.217357 
L 654.108372 153.283175 
L 657.59707 152.080517 
L 661.085768 149.207021 
L 664.574466 149.795964 
L 668.063164 148.31371 
L 671.551862 144.556312 
L 675.04056 147.56627 
L 678.529258 148.642481 
L 682.017956 151.405698 
L 685.506654 150.59625 
L 688.995352 150.311061 
L 692.48405 150.045118 
L 695.972748 150.135429 
L 699.461446 150.903914 
L 702.950143 152.307704 
L 706.438841 155.196413 
L 709.927539 154.588695 
L 713.416237 155.87364 
L 716.904935 156.385274 
L 720.393633 157.525079 
L 723.882331 157.53685 
L 727.371029 159.856789 
L 730.859727 160.461763 
L 734.348425 161.196663 
L 737.837123 161.309051 
L 741.325821 160.314271 
L 744.814519 159.203222 
L 748.303217 158.474168 
L 751.791915 155.93187 
L 755.280613 156.522821 
L 758.769311 158.0574 
L 762.258009 158.385629 
L 765.746707 159.186658 
L 769.235405 160.20983 
L 772.724103 161.408065 
L 776.212801 162.252057 
L 779.701499 162.065714 
L 783.190197 164.255003 
L 786.678895 167.404404 
L 790.167592 168.443499 
L 793.65629 166.936092 
L 797.144988 169.823113 
L 800.633686 171.936952 
L 804.122384 173.075019 
L 807.611082 175.798323 
L 811.09978 176.6994 
L 814.588478 174.064369 
L 818.077176 173.247236 
L 821.565874 173.996737 
L 825.054572 175.523811 
L 828.54327 178.142247 
" style="fill:none;stroke:#008000;stroke-linecap:square;stroke-width:1.5;"/>
   </g>
   <g id="line2d_33">
    <path clip-path="url(#p23c70fef85)" d="M 486.65087 223.190253 
L 490.139568 226.203916 
L 493.628266 166.552625 
L 497.116964 125.841668 
L 500.605662 161.405988 
L 504.09436 72.287129 
L 507.583058 143.767742 
L 511.071756 145.927788 
L 514.560454 150.977291 
L 518.049152 170.152425 
L 521.53785 164.323255 
L 525.026548 140.018045 
L 528.515246 171.683632 
L 532.003943 134.150575 
L 535.492641 156.700096 
L 538.981339 160.37055 
L 542.470037 185.964819 
L 545.958735 161.441095 
L 549.447433 210.049283 
L 552.936131 200.770577 
L 556.424829 180.610968 
L 559.913527 203.532942 
L 563.402225 178.099051 
L 566.890923 202.809969 
L 570.379621 137.058599 
L 573.868319 178.98056 
L 577.357017 148.354157 
L 580.845715 144.213757 
L 584.334413 109.66725 
L 587.823111 149.900021 
L 591.311809 167.717662 
L 594.800507 154.402528 
L 598.289205 151.387442 
L 601.777903 128.108489 
L 605.266601 100.563979 
L 608.755299 146.678161 
L 612.243997 121.549969 
L 615.732695 188.58741 
L 619.221392 141.314884 
L 622.71009 112.849151 
L 626.198788 166.289382 
L 629.687486 156.248328 
L 633.176184 166.974556 
L 636.664882 146.650976 
L 640.15358 164.664716 
L 643.642278 230.017072 
L 647.130976 36.772727 
L 650.619674 142.765723 
L 654.108372 111.769016 
L 657.59707 126.226251 
L 661.085768 87.343787 
L 664.574466 162.492142 
L 668.063164 116.32102 
L 671.551862 63.367071 
L 675.04056 212.671157 
L 678.529258 171.942412 
L 682.017956 211.280134 
L 685.506654 133.043172 
L 688.995352 144.122274 
L 692.48405 144.270215 
L 695.972748 152.097672 
L 699.461446 167.610437 
L 702.950143 182.840604 
L 706.438841 218.055438 
L 709.927539 141.3591 
L 713.416237 183.856615 
L 716.904935 167.531287 
L 720.393633 182.363811 
L 723.882331 157.793435 
L 727.371029 210.441235 
L 730.859727 173.655941 
L 734.348425 177.228044 
L 737.837123 163.761212 
L 741.325821 138.605343 
L 744.814519 134.952821 
L 748.303217 142.558969 
L 751.791915 100.425699 
L 755.280613 169.42678 
L 758.769311 191.570296 
L 762.258009 165.554433 
L 765.746707 176.683586 
L 769.235405 182.561036 
L 772.724103 187.585739 
L 776.212801 180.692011 
L 779.701499 157.994129 
L 783.190197 212.094068 
L 786.678895 236.227273 
L 790.167592 191.151731 
L 793.65629 133.991845 
L 797.144988 232.921493 
L 800.633686 218.138641 
L 804.122384 197.950424 
L 807.611082 235.325181 
L 811.09978 196.396054 
L 814.588478 116.463578 
L 818.077176 155.384547 
L 821.565874 190.381358 
L 825.054572 208.907479 
L 828.54327 235.385498 
" style="fill:none;stroke:#0000ff;stroke-linecap:square;stroke-width:1.5;"/>
   </g>
   <g id="line2d_34">
    <path clip-path="url(#p23c70fef85)" d="M 486.65087 81.027683 
L 490.139568 80.243393 
L 493.628266 80.51396 
L 497.116964 80.80039 
L 500.605662 81.183906 
L 504.09436 81.802057 
L 507.583058 83.14723 
L 511.071756 82.888318 
L 514.560454 82.524271 
L 518.049152 82.824116 
L 521.53785 83.879231 
L 525.026548 83.876484 
L 528.515246 84.092251 
L 532.003943 83.972154 
L 535.492641 84.600758 
L 538.981339 84.48504 
L 542.470037 85.368564 
L 545.958735 86.486164 
L 549.447433 86.263356 
L 552.936131 87.011993 
L 556.424829 89.062208 
L 559.913527 88.285365 
L 563.402225 89.938712 
L 566.890923 90.90816 
L 570.379621 91.872135 
L 573.868319 92.76066 
L 577.357017 94.044657 
L 580.845715 97.81871 
L 584.334413 96.883477 
L 587.823111 98.168848 
L 591.311809 96.65174 
L 594.800507 97.097355 
L 598.289205 99.963005 
L 601.777903 100.635205 
L 605.266601 101.238674 
L 608.755299 102.421077 
L 612.243997 102.456581 
L 615.732695 103.199658 
L 619.221392 106.592427 
L 622.71009 105.699008 
L 626.198788 107.681285 
L 629.687486 108.210656 
L 633.176184 108.040245 
L 636.664882 111.004957 
L 640.15358 113.439611 
L 643.642278 114.296518 
L 647.130976 114.109235 
L 650.619674 116.380926 
L 654.108372 118.590175 
L 657.59707 118.272921 
L 661.085768 119.0418 
L 664.574466 121.181459 
L 668.063164 120.633542 
L 671.551862 123.961829 
L 675.04056 124.606983 
L 678.529258 124.716541 
L 682.017956 126.807238 
L 685.506654 127.845718 
L 688.995352 128.525281 
L 692.48405 131.235717 
L 695.972748 131.551533 
L 699.461446 133.263844 
L 702.950143 136.662558 
L 706.438841 135.273661 
L 709.927539 138.558632 
L 713.416237 139.943794 
L 716.904935 144.24271 
L 720.393633 143.259739 
L 723.882331 146.308916 
L 727.371029 149.299171 
L 730.859727 148.466134 
L 734.348425 151.414146 
L 737.837123 154.816659 
L 741.325821 154.310749 
L 744.814519 158.49208 
L 748.303217 160.79687 
L 751.791915 160.313841 
L 755.280613 163.421124 
L 758.769311 166.32728 
L 762.258009 166.697445 
L 765.746707 170.186011 
L 769.235405 171.47237 
L 772.724103 174.917213 
L 776.212801 177.11487 
L 779.701499 177.176303 
L 783.190197 180.851874 
L 786.678895 183.310719 
L 790.167592 188.143385 
L 793.65629 188.121233 
L 797.144988 190.43403 
L 800.633686 195.1138 
L 804.122384 193.983965 
L 807.611082 197.591556 
L 811.09978 201.492059 
L 814.588478 200.017001 
L 818.077176 204.821441 
L 821.565874 208.164732 
L 825.054572 207.446103 
L 828.54327 212.361238 
" style="fill:none;stroke:#ff0000;stroke-linecap:square;stroke-width:1.5;"/>
   </g>
   <g id="patch_9">
    <path d="M 469.55625 246.2 
L 469.55625 26.8 
" style="fill:none;stroke:#000000;stroke-linecap:square;stroke-linejoin:miter;stroke-width:0.8;"/>
   </g>
   <g id="patch_10">
    <path d="M 845.63789 246.2 
L 845.63789 26.8 
" style="fill:none;stroke:#000000;stroke-linecap:square;stroke-linejoin:miter;stroke-width:0.8;"/>
   </g>
   <g id="patch_11">
    <path d="M 469.55625 246.2 
L 845.63789 246.2 
" style="fill:none;stroke:#000000;stroke-linecap:square;stroke-linejoin:miter;stroke-width:0.8;"/>
   </g>
   <g id="patch_12">
    <path d="M 469.55625 26.8 
L 845.63789 26.8 
" style="fill:none;stroke:#000000;stroke-linecap:square;stroke-linejoin:miter;stroke-width:0.8;"/>
   </g>
   <g id="text_31">
    <!-- Validation Segment 184 -->
    <g transform="translate(585.701133 20.8)scale(0.12 -0.12)">
     <use xlink:href="#DejaVuSans-86"/>
     <use x="60.658203" xlink:href="#DejaVuSans-97"/>
     <use x="121.9375" xlink:href="#DejaVuSans-108"/>
     <use x="149.720703" xlink:href="#DejaVuSans-105"/>
     <use x="177.503906" xlink:href="#DejaVuSans-100"/>
     <use x="240.980469" xlink:href="#DejaVuSans-97"/>
     <use x="302.259766" xlink:href="#DejaVuSans-116"/>
     <use x="341.46875" xlink:href="#DejaVuSans-105"/>
     <use x="369.251953" xlink:href="#DejaVuSans-111"/>
     <use x="430.433594" xlink:href="#DejaVuSans-110"/>
     <use x="493.8125" xlink:href="#DejaVuSans-32"/>
     <use x="525.599609" xlink:href="#DejaVuSans-83"/>
     <use x="589.076172" xlink:href="#DejaVuSans-101"/>
     <use x="650.599609" xlink:href="#DejaVuSans-103"/>
     <use x="714.076172" xlink:href="#DejaVuSans-109"/>
     <use x="811.488281" xlink:href="#DejaVuSans-101"/>
     <use x="873.011719" xlink:href="#DejaVuSans-110"/>
     <use x="936.390625" xlink:href="#DejaVuSans-116"/>
     <use x="975.599609" xlink:href="#DejaVuSans-32"/>
     <use x="1007.386719" xlink:href="#DejaVuSans-49"/>
     <use x="1071.009766" xlink:href="#DejaVuSans-56"/>
     <use x="1134.632812" xlink:href="#DejaVuSans-52"/>
    </g>
   </g>
   <g id="legend_2">
    <g id="patch_13">
     <path d="M 699.605078 78.834375 
L 838.63789 78.834375 
Q 840.63789 78.834375 840.63789 76.834375 
L 840.63789 33.8 
Q 840.63789 31.8 838.63789 31.8 
L 699.605078 31.8 
Q 697.605078 31.8 697.605078 33.8 
L 697.605078 76.834375 
Q 697.605078 78.834375 699.605078 78.834375 
z
" style="fill:#ffffff;opacity:0.8;stroke:#cccccc;stroke-linejoin:miter;"/>
    </g>
    <g id="line2d_35">
     <path d="M 701.605078 39.898437 
L 721.605078 39.898437 
" style="fill:none;stroke:#008000;stroke-linecap:square;stroke-width:1.5;"/>
    </g>
    <g id="line2d_36"/>
    <g id="text_32">
     <!-- estimated speed (KF) -->
     <g transform="translate(729.605078 43.398437)scale(0.1 -0.1)">
      <use xlink:href="#DejaVuSans-101"/>
      <use x="61.523438" xlink:href="#DejaVuSans-115"/>
      <use x="113.623047" xlink:href="#DejaVuSans-116"/>
      <use x="152.832031" xlink:href="#DejaVuSans-105"/>
      <use x="180.615234" xlink:href="#DejaVuSans-109"/>
      <use x="278.027344" xlink:href="#DejaVuSans-97"/>
      <use x="339.306641" xlink:href="#DejaVuSans-116"/>
      <use x="378.515625" xlink:href="#DejaVuSans-101"/>
      <use x="440.039062" xlink:href="#DejaVuSans-100"/>
      <use x="503.515625" xlink:href="#DejaVuSans-32"/>
      <use x="535.302734" xlink:href="#DejaVuSans-115"/>
      <use x="587.402344" xlink:href="#DejaVuSans-112"/>
      <use x="650.878906" xlink:href="#DejaVuSans-101"/>
      <use x="712.402344" xlink:href="#DejaVuSans-101"/>
      <use x="773.925781" xlink:href="#DejaVuSans-100"/>
      <use x="837.402344" xlink:href="#DejaVuSans-32"/>
      <use x="869.189453" xlink:href="#DejaVuSans-40"/>
      <use x="908.203125" xlink:href="#DejaVuSans-75"/>
      <use x="973.779297" xlink:href="#DejaVuSans-70"/>
      <use x="1031.298828" xlink:href="#DejaVuSans-41"/>
     </g>
    </g>
    <g id="line2d_37">
     <path d="M 701.605078 54.576562 
L 721.605078 54.576562 
" style="fill:none;stroke:#0000ff;stroke-linecap:square;stroke-width:1.5;"/>
    </g>
    <g id="line2d_38"/>
    <g id="text_33">
     <!-- predicted speed -->
     <g transform="translate(729.605078 58.076562)scale(0.1 -0.1)">
      <use xlink:href="#DejaVuSans-112"/>
      <use x="63.476562" xlink:href="#DejaVuSans-114"/>
      <use x="102.339844" xlink:href="#DejaVuSans-101"/>
      <use x="163.863281" xlink:href="#DejaVuSans-100"/>
      <use x="227.339844" xlink:href="#DejaVuSans-105"/>
      <use x="255.123047" xlink:href="#DejaVuSans-99"/>
      <use x="310.103516" xlink:href="#DejaVuSans-116"/>
      <use x="349.3125" xlink:href="#DejaVuSans-101"/>
      <use x="410.835938" xlink:href="#DejaVuSans-100"/>
      <use x="474.3125" xlink:href="#DejaVuSans-32"/>
      <use x="506.099609" xlink:href="#DejaVuSans-115"/>
      <use x="558.199219" xlink:href="#DejaVuSans-112"/>
      <use x="621.675781" xlink:href="#DejaVuSans-101"/>
      <use x="683.199219" xlink:href="#DejaVuSans-101"/>
      <use x="744.722656" xlink:href="#DejaVuSans-100"/>
     </g>
    </g>
    <g id="line2d_39">
     <path d="M 701.605078 69.254687 
L 721.605078 69.254687 
" style="fill:none;stroke:#ff0000;stroke-linecap:square;stroke-width:1.5;"/>
    </g>
    <g id="line2d_40"/>
    <g id="text_34">
     <!-- true speed -->
     <g transform="translate(729.605078 72.754687)scale(0.1 -0.1)">
      <use xlink:href="#DejaVuSans-116"/>
      <use x="39.208984" xlink:href="#DejaVuSans-114"/>
      <use x="80.322266" xlink:href="#DejaVuSans-117"/>
      <use x="143.701172" xlink:href="#DejaVuSans-101"/>
      <use x="205.224609" xlink:href="#DejaVuSans-32"/>
      <use x="237.011719" xlink:href="#DejaVuSans-115"/>
      <use x="289.111328" xlink:href="#DejaVuSans-112"/>
      <use x="352.587891" xlink:href="#DejaVuSans-101"/>
      <use x="414.111328" xlink:href="#DejaVuSans-101"/>
      <use x="475.634766" xlink:href="#DejaVuSans-100"/>
     </g>
    </g>
   </g>
  </g>
 </g>
 <defs>
  <clipPath id="p27941a4ada">
   <rect height="219.4" width="376.08164" x="44.55" y="26.8"/>
  </clipPath>
  <clipPath id="p23c70fef85">
   <rect height="219.4" width="376.08164" x="469.55625" y="26.8"/>
  </clipPath>
 </defs>
</svg>
